#N canvas 1 78 450 300 10;
#X obj 496 447 sel 1;
#X obj 348 567 outlet;
#X msg 351 468 1;
#X msg 496 471 2;
#X obj 386 234 &&;
#X obj 348 326 &&;
#X obj 644 452 sel 1;
#X msg 643 476 3;
#X obj 388 165 < 55;
#X obj 445 166 < 55;
#X obj 288 190 > 155;
#X obj 351 437 sel 1;
#X obj 104 389 < 155;
#X obj 61 389 > 55;
#X obj 200 389 < 155;
#X obj 157 389 > 55;
#X obj 296 390 < 155;
#X obj 253 390 > 55;
#X obj 175 437 &&;
#X obj 84 437 &&;
#X obj 263 438 &&;
#X obj 123 482 &&;
#X obj 123 506 &&;
#X msg 123 528 0;
#X obj 103 153 tgl 15 0 empty empty r 17 7 0 10 -262144 -1 -1 0 1;
#X obj 131 154 tgl 15 0 empty empty g 17 7 0 10 -262144 -1 -1 0 1;
#X obj 161 154 tgl 15 0 empty empty b 17 7 0 10 -262144 -1 -1 0 1;
#X obj 189 153 tgl 15 0 empty empty 0 17 7 0 10 -262144 -1 -1 0 1;
#X obj 802 81 r RGBlo;
#X obj 881 81 r RGBhi;
#X obj 413 203 t b f;
#X obj 366 265 t b f;
#X floatatom 105 129 5 0 0 2 r - -, f 5;
#X floatatom 142 129 5 0 0 2 g - -, f 5;
#X floatatom 178 129 5 0 0 2 b - -, f 5;
#X obj 568 256 &&;
#X obj 530 348 &&;
#X obj 570 187 < 55;
#X obj 627 188 < 55;
#X obj 470 212 > 155;
#X obj 595 225 t b f;
#X obj 548 287 t b f;
#X obj 787 259 &&;
#X obj 749 351 &&;
#X obj 789 190 < 55;
#X obj 846 191 < 55;
#X obj 689 215 > 155;
#X obj 814 228 t b f;
#X obj 767 290 t b f;
#X obj 350 80 inlet;
#X obj 537 80 inlet;
#X obj 683 80 inlet;
#X connect 0 0 3 0;
#X connect 2 0 1 0;
#X connect 3 0 1 0;
#X connect 4 0 31 0;
#X connect 5 0 11 0;
#X connect 5 0 24 0;
#X connect 6 0 7 0;
#X connect 7 0 1 0;
#X connect 8 0 4 0;
#X connect 9 0 30 0;
#X connect 10 0 5 0;
#X connect 11 0 2 0;
#X connect 12 0 19 1;
#X connect 13 0 19 0;
#X connect 14 0 18 1;
#X connect 15 0 18 0;
#X connect 16 0 20 1;
#X connect 17 0 20 0;
#X connect 18 0 21 1;
#X connect 19 0 21 0;
#X connect 20 0 22 1;
#X connect 21 0 22 0;
#X connect 22 0 23 0;
#X connect 22 0 27 0;
#X connect 23 0 1 0;
#X connect 28 0 9 1;
#X connect 28 0 8 1;
#X connect 28 0 37 1;
#X connect 28 0 38 1;
#X connect 28 0 44 1;
#X connect 28 0 45 1;
#X connect 28 0 13 1;
#X connect 28 0 15 1;
#X connect 28 0 17 1;
#X connect 29 0 10 1;
#X connect 29 0 39 1;
#X connect 29 0 46 1;
#X connect 29 0 16 1;
#X connect 29 0 14 1;
#X connect 29 0 12 1;
#X connect 30 0 4 0;
#X connect 30 1 4 1;
#X connect 31 0 5 0;
#X connect 31 1 5 1;
#X connect 35 0 41 0;
#X connect 36 0 0 0;
#X connect 36 0 25 0;
#X connect 37 0 35 0;
#X connect 38 0 40 0;
#X connect 39 0 36 0;
#X connect 40 0 35 0;
#X connect 40 1 35 1;
#X connect 41 0 36 0;
#X connect 41 1 36 1;
#X connect 42 0 48 0;
#X connect 43 0 6 0;
#X connect 43 0 26 0;
#X connect 44 0 42 0;
#X connect 45 0 47 0;
#X connect 46 0 43 0;
#X connect 47 0 42 0;
#X connect 47 1 42 1;
#X connect 48 0 43 0;
#X connect 48 1 43 1;
#X connect 49 0 10 0;
#X connect 49 0 13 0;
#X connect 49 0 12 0;
#X connect 49 0 32 0;
#X connect 49 0 37 0;
#X connect 49 0 44 0;
#X connect 50 0 8 0;
#X connect 50 0 15 0;
#X connect 50 0 14 0;
#X connect 50 0 33 0;
#X connect 50 0 39 0;
#X connect 50 0 45 0;
#X connect 51 0 9 0;
#X connect 51 0 17 0;
#X connect 51 0 16 0;
#X connect 51 0 34 0;
#X connect 51 0 38 0;
#X connect 51 0 46 0;
